<?xml version="1.0" standalone="no"?>
<!DOCTYPE svg PUBLIC "-//W3C//DTD SVG 20010904//EN"
 "http://www.w3.org/TR/2001/REC-SVG-20010904/DTD/svg10.dtd">
<svg version="1.0" xmlns="http://www.w3.org/2000/svg"
 width="1280.000000pt" height="1065.000000pt" viewBox="0 0 1280.000000 1065.000000"
 preserveAspectRatio="xMidYMid meet">
<metadata>
Created by potrace 1.15, written by Peter Selinger 2001-2017
</metadata>
<g transform="translate(0.000000,1065.000000) scale(0.100000,-0.100000)"
fill="#000000" stroke="none">
<path d="M8390 10643 c-416 -44 -796 -309 -986 -686 -179 -354 -180 -779 -3
-1131 171 -338 474 -576 849 -666 47 -11 93 -20 103 -20 13 0 101 169 359 685
189 377 347 685 353 685 5 0 145 -51 310 -113 l300 -112 -3 -33 c-5 -67 -138
-561 -172 -639 -18 -43 5 -22 56 50 100 139 175 317 211 495 23 117 23 345 0
464 -95 482 -457 869 -923 987 -145 36 -314 49 -454 34z"/>
<path d="M10390 9975 l0 -145 875 0 875 0 0 145 0 145 -875 0 -875 0 0 -145z"/>
<path d="M10310 9712 l0 -82 1128 2 1127 3 0 78 0 77 -1128 3 -1127 2 0 -83z"/>
<path d="M10457 9593 c-4 -3 -7 -64 -7 -135 l0 -128 920 0 920 0 0 135 0 135
-913 0 c-503 0 -917 -3 -920 -7z"/>
<path d="M8551 8343 l-539 -1078 -22 75 c-12 41 -85 284 -162 539 l-139 464
-104 109 c-113 118 -196 234 -249 350 -38 82 -116 304 -136 386 -6 28 -14 52
-17 52 -3 0 -53 -35 -112 -78 -164 -122 -213 -155 -726 -507 -1664 -1139
-2408 -1715 -3060 -2369 -471 -473 -758 -877 -874 -1232 -52 -159 -65 -246
-58 -396 8 -186 64 -335 180 -478 67 -82 96 -102 210 -139 464 -153 1434 -257
2815 -300 156 -5 285 -11 287 -13 3 -2 -20 -101 -51 -219 -30 -117 -108 -425
-174 -684 -118 -463 -217 -853 -405 -1588 -202 -789 -247 -969 -243 -972 2 -2
231 -61 508 -130 278 -69 512 -128 521 -131 12 -3 20 8 31 48 9 29 54 183 101
343 143 484 311 1100 412 1510 262 1069 385 1792 385 2265 0 333 -46 474 -185
570 -285 196 -910 324 -1935 395 -118 8 -247 15 -286 15 -39 0 -73 3 -77 6 -3
3 375 355 841 782 466 426 1024 938 1241 1136 216 199 396 362 400 363 3 2 28
-39 55 -90 233 -438 501 -713 772 -793 78 -23 219 -23 303 0 329 89 645 421
932 981 222 432 431 1002 578 1579 17 66 30 121 28 122 -5 5 -489 184 -498
184 -5 0 -251 -485 -548 -1077z"/>
<path d="M10310 9225 l0 -75 1040 0 1040 0 0 75 0 75 -1040 0 -1040 0 0 -75z"/>
<path d="M10371 9108 c-5 -13 -12 -37 -15 -54 l-7 -32 53 -6 c29 -4 190 -20
358 -36 168 -17 487 -48 710 -70 223 -22 540 -53 705 -70 l300 -29 101 56
c136 76 141 80 128 101 -17 26 -129 100 -171 112 -21 6 -74 15 -118 20 -118
14 -947 30 -1528 30 l-507 0 -9 -22z"/>
<path d="M10320 8880 l0 -110 1045 0 c922 0 1045 2 1045 15 0 8 -4 15 -8 15
-74 0 -627 51 -1405 130 -329 33 -616 60 -637 60 l-40 0 0 -110z"/>
<path d="M10500 8665 l0 -75 1040 0 1040 0 0 75 0 75 -1040 0 -1040 0 0 -75z"/>
<path d="M10390 8445 l0 -115 951 2 951 3 0 110 0 110 -951 3 -951 2 0 -115z"/>
<path d="M10520 8185 l0 -105 955 0 955 0 0 105 0 105 -955 0 -955 0 0 -105z"/>
<path d="M10430 8015 l0 -35 845 0 845 0 0 35 0 35 -845 0 -845 0 0 -35z"/>
<path d="M11175 7939 c-586 -11 -755 -21 -828 -49 -61 -23 -162 -97 -162 -118
0 -7 52 -42 115 -78 l115 -65 725 71 c399 39 862 84 1030 100 168 16 322 33
342 37 l36 8 -16 50 -17 50 -460 1 c-253 0 -649 -3 -880 -7z"/>
<path d="M12180 7769 c-151 -15 -554 -55 -895 -89 -655 -63 -775 -81 -775
-112 0 -17 42 -18 1020 -18 l1020 0 0 125 0 125 -47 -1 c-27 -1 -172 -14 -323
-30z"/>
<path d="M10280 7390 l0 -130 1028 2 1027 3 0 125 0 125 -1027 3 -1028 2 0
-130z"/>
<path d="M91 7013 c-45 -181 -84 -335 -87 -345 -4 -13 21 -22 158 -54 180 -43
203 -55 243 -134 60 -117 56 -269 -25 -1045 -78 -748 -94 -999 -87 -1358 6
-297 12 -354 54 -532 68 -291 221 -473 467 -555 232 -77 444 -100 998 -107
l436 -6 6 -81 c3 -44 10 -290 16 -546 6 -256 15 -616 20 -800 5 -184 10 -360
10 -391 l0 -56 -462 -429 c-254 -236 -482 -448 -507 -471 l-46 -42 495 0 495
1 154 165 155 164 165 -165 166 -166 510 0 510 0 -504 504 -504 505 2 173 c6
380 38 1669 43 1673 2 2 331 31 732 64 400 32 730 62 733 65 6 6 -53 675 -61
701 -4 11 -28 9 -1121 -79 -302 -25 -672 -50 -822 -57 -293 -13 -954 -7 -1108
10 -100 11 -277 43 -271 49 2 2 0 18 -5 35 -24 79 -39 253 -39 455 0 297 19
556 105 1384 77 746 70 940 -39 1196 -65 151 -148 256 -294 373 -122 98 -182
125 -389 180 -104 27 -195 49 -204 49 -13 0 -33 -65 -98 -327z"/>
<path d="M10430 7050 l0 -180 1030 0 1030 0 0 180 0 180 -1030 0 -1030 0 0
-180z"/>
<path d="M10537 6653 l2 -178 901 -3 900 -2 0 180 0 180 -902 0 -903 0 2 -177z"/>
<path d="M6317 6413 c-4 -3 -7 -165 -7 -360 l0 -353 2192 -2 2193 -3 108 -350
c487 -1578 821 -3034 888 -3877 14 -176 7 -537 -13 -623 l-13 -60 -1592 -3
-1593 -2 0 -360 0 -360 1658 0 c1837 0 1714 -4 1862 67 58 28 93 54 155 117
92 94 136 164 178 279 65 183 88 351 88 647 0 382 -44 767 -157 1375 -144 771
-431 1899 -733 2883 -45 145 -81 265 -81 267 0 3 304 5 675 5 l675 0 0 360 0
360 -3238 0 c-1781 0 -3242 -3 -3245 -7z"/>
</g>
</svg>
